<svg xmlns="http://www.w3.org/2000/svg" xmlns:xlink="http://www.w3.org/1999/xlink" zoomAndPan="magnify" preserveAspectRatio="xMidYMid meet" version="1.0" viewBox="45.3 127.04 286.38 56.63"><defs><g/></defs><path fill="#f26419" d="M 56.511719 183.667969 L 85.414062 136.390625 L 302.765625 136.390625 L 331.671875 183.667969 Z M 56.511719 183.667969 " fill-opacity="1" fill-rule="evenodd"/><path stroke-linecap="butt" transform="matrix(0.370311, 0, 0, 0.369444, 9.88106, 59.513415)" fill-opacity="1" fill="#f6ae2d" fill-rule="evenodd" stroke-linejoin="round" d="M 96.988222 321.709461 L 181.86196 184.140146 L 207.980202 184.140146 L 123.106464 321.709461 Z M 96.988222 321.709461 " stroke="#f6ae2d" stroke-width="1" stroke-opacity="1" stroke-miterlimit="10"/><path stroke-linecap="butt" transform="matrix(0.370311, 0, 0, 0.369444, 9.88106, 59.513415)" fill-opacity="1" fill="#f6ae2d" fill-rule="evenodd" stroke-linejoin="round" d="M 183.349307 199.281124 L 193.127825 184.140146 L 751.399973 184.140146 L 761.178491 199.281124 Z M 183.349307 199.281124 " stroke="#f6ae2d" stroke-width="1" stroke-opacity="1" stroke-miterlimit="10"/><g fill="#000000" fill-opacity="1"><g transform="translate(84.414989, 169.795419)"><g><path d="M 23.859375 -21.640625 L 23.859375 0 L 21.078125 0 L 21.078125 -13.578125 L 13.375 -2.640625 L 13.3125 -2.640625 L 5.734375 -13.1875 L 5.734375 0 L 3.015625 0 L 3.015625 -21.640625 L 3.046875 -21.640625 L 13.375 -7.015625 L 23.84375 -21.640625 Z M 23.859375 -21.640625 "/></g></g></g><g fill="#000000" fill-opacity="1"><g transform="translate(111.290738, 169.795419)"><g><path d="M 5.828125 -20.96875 L 5.828125 0 L 3.015625 0 L 3.015625 -20.96875 Z M 5.828125 -20.96875 "/></g></g></g><g fill="#000000" fill-opacity="1"><g transform="translate(120.133347, 169.795419)"><g><path d="M 13.859375 -17.21875 C 13.109375 -17.625 12.304688 -17.953125 11.453125 -18.203125 C 10.597656 -18.460938 9.796875 -18.59375 9.046875 -18.59375 C 7.910156 -18.59375 7.007812 -18.332031 6.34375 -17.8125 C 5.675781 -17.300781 5.34375 -16.601562 5.34375 -15.71875 C 5.34375 -14.84375 5.734375 -14.128906 6.515625 -13.578125 C 7.296875 -13.035156 8.410156 -12.492188 9.859375 -11.953125 C 10.941406 -11.566406 11.851562 -11.144531 12.59375 -10.6875 C 13.34375 -10.226562 13.960938 -9.597656 14.453125 -8.796875 C 14.953125 -7.992188 15.203125 -6.972656 15.203125 -5.734375 C 15.203125 -4.617188 14.921875 -3.601562 14.359375 -2.6875 C 13.796875 -1.78125 12.992188 -1.066406 11.953125 -0.546875 C 10.921875 -0.0234375 9.710938 0.234375 8.328125 0.234375 C 7.023438 0.234375 5.773438 0.0234375 4.578125 -0.390625 C 3.378906 -0.804688 2.328125 -1.332031 1.421875 -1.96875 L 2.671875 -4.203125 C 3.378906 -3.660156 4.234375 -3.203125 5.234375 -2.828125 C 6.242188 -2.453125 7.1875 -2.265625 8.0625 -2.265625 C 9.1875 -2.265625 10.164062 -2.550781 11 -3.125 C 11.84375 -3.707031 12.265625 -4.570312 12.265625 -5.71875 C 12.265625 -6.675781 11.910156 -7.441406 11.203125 -8.015625 C 10.503906 -8.585938 9.515625 -9.125 8.234375 -9.625 C 7.054688 -10.070312 6.078125 -10.507812 5.296875 -10.9375 C 4.515625 -11.363281 3.84375 -11.945312 3.28125 -12.6875 C 2.71875 -13.425781 2.4375 -14.359375 2.4375 -15.484375 C 2.4375 -17.128906 3.007812 -18.457031 4.15625 -19.46875 C 5.3125 -20.488281 6.804688 -21.023438 8.640625 -21.078125 C 10.898438 -21.078125 13 -20.519531 14.9375 -19.40625 Z M 13.859375 -17.21875 "/></g></g></g><g fill="#000000" fill-opacity="1"><g transform="translate(137.006789, 169.795419)"><g><path d="M 16.640625 -20.96875 L 16.640625 -18.265625 L 5.828125 -18.265625 L 5.828125 -11.890625 L 15.484375 -11.890625 L 15.484375 -9.1875 L 5.828125 -9.1875 L 5.828125 -2.71875 L 17.046875 -2.71875 L 17.046875 0 L 3.015625 0 L 3.015625 -20.96875 Z M 16.640625 -20.96875 "/></g></g></g><g fill="#000000" fill-opacity="1"><g transform="translate(210.206035, 169.490408)"><g><path d="M 8.640625 -20.96875 C 10.921875 -20.96875 12.703125 -20.394531 13.984375 -19.25 C 15.273438 -18.113281 15.921875 -16.519531 15.921875 -14.46875 C 15.921875 -13.289062 15.679688 -12.1875 15.203125 -11.15625 C 14.734375 -10.132812 13.972656 -9.304688 12.921875 -8.671875 C 11.867188 -8.035156 10.539062 -7.71875 8.9375 -7.71875 L 5.828125 -7.71875 L 5.828125 0 L 3.015625 0 L 3.015625 -20.96875 Z M 8.9375 -10.4375 C 9.9375 -10.4375 10.75 -10.648438 11.375 -11.078125 C 12.007812 -11.503906 12.460938 -12.019531 12.734375 -12.625 C 13.003906 -13.238281 13.140625 -13.832031 13.140625 -14.40625 C 13.140625 -15.414062 12.8125 -16.3125 12.15625 -17.09375 C 11.5 -17.875 10.472656 -18.265625 9.078125 -18.265625 L 5.828125 -18.265625 L 5.828125 -10.4375 Z M 8.9375 -10.4375 "/></g></g></g><g fill="#000000" fill-opacity="1"><g transform="translate(227.456378, 169.490408)"><g><path d="M 5.828125 -20.96875 L 5.828125 -2.71875 L 16.5 -2.71875 L 16.5 0 L 3.015625 0 L 3.015625 -20.96875 Z M 5.828125 -20.96875 "/></g></g></g><g fill="#000000" fill-opacity="1"><g transform="translate(245.489507, 169.490408)"><g><path d="M 14 -5.515625 L 5.9375 -5.515625 L 3.71875 0 L 0.921875 0 L 10.09375 -21.84375 L 10.265625 -21.84375 L 19.4375 0 L 16.1875 0 Z M 13.046875 -7.953125 L 10.0625 -15.609375 L 6.953125 -7.953125 Z M 13.046875 -7.953125 "/></g></g></g><g fill="#000000" fill-opacity="1"><g transform="translate(265.813022, 169.490408)"><g><path d="M 18.421875 -1.5625 C 17.742188 -1.125 16.882812 -0.710938 15.84375 -0.328125 C 14.8125 0.046875 13.6875 0.234375 12.46875 0.234375 C 10.320312 0.234375 8.429688 -0.238281 6.796875 -1.1875 C 5.160156 -2.132812 3.90625 -3.410156 3.03125 -5.015625 C 2.15625 -6.617188 1.71875 -8.390625 1.71875 -10.328125 C 1.71875 -12.390625 2.160156 -14.25 3.046875 -15.90625 C 3.929688 -17.5625 5.160156 -18.859375 6.734375 -19.796875 C 8.316406 -20.734375 10.101562 -21.203125 12.09375 -21.203125 C 13.269531 -21.203125 14.367188 -21.046875 15.390625 -20.734375 C 16.421875 -20.421875 17.34375 -20.015625 18.15625 -19.515625 L 17.015625 -16.875 C 15.410156 -17.957031 13.800781 -18.5 12.1875 -18.5 C 10.832031 -18.5 9.578125 -18.140625 8.421875 -17.421875 C 7.273438 -16.710938 6.359375 -15.742188 5.671875 -14.515625 C 4.984375 -13.285156 4.640625 -11.9375 4.640625 -10.46875 C 4.640625 -8.957031 4.953125 -7.59375 5.578125 -6.375 C 6.210938 -5.15625 7.113281 -4.203125 8.28125 -3.515625 C 9.445312 -2.835938 10.796875 -2.5 12.328125 -2.5 C 14.203125 -2.5 15.832031 -3.03125 17.21875 -4.09375 Z M 18.421875 -1.5625 "/></g></g></g><g fill="#000000" fill-opacity="1"><g transform="translate(285.933588, 169.490408)"><g><path d="M 16.640625 -20.96875 L 16.640625 -18.265625 L 5.828125 -18.265625 L 5.828125 -11.890625 L 15.484375 -11.890625 L 15.484375 -9.1875 L 5.828125 -9.1875 L 5.828125 -2.71875 L 17.046875 -2.71875 L 17.046875 0 L 3.015625 0 L 3.015625 -20.96875 Z M 16.640625 -20.96875 "/></g></g></g><g fill="#000000" fill-opacity="1"><g transform="translate(169.068363, 170.322807)"><g><path d="M 11.890625 -14.96875 L 11.890625 -13.046875 L 4.15625 -13.046875 L 4.15625 -8.484375 L 11.0625 -8.484375 L 11.0625 -6.5625 L 4.15625 -6.5625 L 4.15625 -1.953125 L 12.171875 -1.953125 L 12.171875 0 L 2.15625 0 L 2.15625 -14.96875 Z M 11.890625 -14.96875 "/></g></g></g><g fill="#000000" fill-opacity="1"><g transform="translate(182.58245, 170.322807)"><g><path d="M 15.203125 -14.96875 L 15.203125 0.5 L 15.140625 0.5 L 4.140625 -10.65625 L 4.1875 0 L 2.15625 0 L 2.15625 -15.421875 L 2.25 -15.421875 L 13.234375 -4.140625 L 13.1875 -14.96875 Z M 15.203125 -14.96875 "/></g></g></g></svg>