<svg version="1.1" viewBox="0.0 0.0 960.0 540.0" fill="none" stroke="none" stroke-linecap="square" stroke-miterlimit="10" xmlns:xlink="http://www.w3.org/1999/xlink" xmlns="http://www.w3.org/2000/svg"><clipPath id="g239548f7cd4_0_4.0"><path d="m0 0l960.0 0l0 540.0l-960.0 0l0 -540.0z" clip-rule="nonzero"/></clipPath><g clip-path="url(#g239548f7cd4_0_4.0)"><path fill="#000000" fill-opacity="0.0" d="m0 0l960.0 0l0 540.0l-960.0 0z" fill-rule="evenodd"/><path fill="#f26419" d="m127.73753 367.86884l99.51474 -163.1496l544.02563 0l99.51477 163.1496z" fill-rule="evenodd"/><path fill="#000000" fill-opacity="0.0" d="m220.3726 228.11958l668.18896 0l0 116.34645l-668.18896 0z" fill-rule="evenodd"/><path fill="#ffffff" d="m241.52885 313.9196q-1.75 0 -2.953125 -1.203125q-1.203125 -1.203125 -1.203125 -2.953125l0 -54.156265q0 -1.84375 1.203125 -3.0q1.203125 -1.171875 2.953125 -1.171875q2.40625 0 3.6875 2.25l25.031265 50.156265l-2.5625 0l24.40625 -50.156265q1.28125 -2.25 3.6875 -2.25q1.75 0 2.953125 1.171875q1.203125 1.15625 1.203125 3.0l0 54.156265q0 1.75 -1.25 2.953125q-1.234375 1.203125 -2.90625 1.203125q-1.765625 0 -2.96875 -1.203125q-1.203125 -1.203125 -1.203125 -2.953125l0 -42.640625l1.609375 -0.40625l-20.96875 42.71875q-1.359375 2.078125 -3.59375 2.078125q-2.640625 0 -3.84375 -2.46875l-20.718765 -41.53125l1.59375 -0.390625l0 42.640625q0 1.75 -1.203125 2.953125q-1.1875 1.203125 -2.953125 1.203125zm78.4818 0q-1.765625 0 -2.921875 -1.15625q-1.15625 -1.15625 -1.15625 -2.921875l0 -35.609375q0 -1.828125 1.15625 -2.953125q1.15625 -1.125 2.921875 -1.125q1.84375 0 2.953125 1.125q1.125 1.125 1.125 2.953125l0 35.609375q0 1.765625 -1.125 2.921875q-1.109375 1.15625 -2.953125 1.15625zm0 -50.875q-2.15625 0 -3.71875 -1.5625q-1.5625 -1.5625 -1.5625 -3.71875q0 -2.1562653 1.5625 -3.7187653q1.5625 -1.5625 3.71875 -1.5625q2.15625 0 3.71875 1.5625q1.5625 1.5625 1.5625 3.7187653q0 2.15625 -1.5625 3.71875q-1.5625 1.5625 -3.71875 1.5625zm35.20685 51.1875q-5.609375 0 -10.375 -1.71875q-4.75 -1.71875 -7.390625 -4.359375q-1.203125 -1.28125 -1.0 -2.90625q0.203125 -1.640625 1.5625 -2.6875q1.59375 -1.28125 3.15625 -1.078125q1.5625 0.203125 2.6875 1.390625q1.359375 1.53125 4.359375 2.859375q3.0 1.3125 6.671875 1.3125q4.640625 0 7.078125 -1.515625q2.4375 -1.53125 2.53125 -3.921875q0.078125 -2.40625 -2.28125 -4.15625q-2.359375 -1.765625 -8.609375 -2.890625q-8.078125 -1.59375 -11.71875 -4.796875q-3.640625 -3.203125 -3.640625 -7.84375q0 -4.078125 2.390625 -6.75q2.40625 -2.6875 6.171875 -4.0q3.765625 -1.328125 7.84375 -1.328125q5.28125 0 9.359375 1.6875q4.078125 1.671875 6.484375 4.625q1.109375 1.28125 1.03125 2.6875q-0.078125 1.390625 -1.359375 2.359375q-1.28125 0.875 -3.046875 0.5625q-1.75 -0.328125 -2.953125 -1.4375q-2.0 -1.921875 -4.328125 -2.640625q-2.3125 -0.71875 -5.34375 -0.71875q-3.53125 0 -5.96875 1.203125q-2.4375 1.1875 -2.4375 3.515625q0 1.4375 0.75 2.59375q0.765625 1.15625 3.0 2.078125q2.25 0.921875 6.5625 1.796875q6.0 1.203125 9.484375 3.046875q3.484375 1.84375 5.0 4.28125q1.515625 2.4375 1.515625 5.640625q0 3.671875 -1.953125 6.640625q-1.953125 2.953125 -5.765625 4.71875q-3.796875 1.75 -9.46875 1.75zm48.080597 0q-6.640625 0 -11.8125 -2.828125q-5.15625 -2.84375 -8.078125 -7.84375q-2.921875 -5.0 -2.921875 -11.484375q0 -6.5625 2.765625 -11.5625q2.765625 -5.0 7.640625 -7.828125q4.875 -2.84375 11.203125 -2.84375q6.234375 0 10.71875 2.765625q4.484375 2.75 6.84375 7.59375q2.359375 4.84375 2.359375 11.15625q0 1.515625 -1.046875 2.515625q-1.03125 1.0 -2.640625 1.0l-32.234375 0l0 -6.390625l32.0 0l-3.28125 2.234375q-0.078125 -4.0 -1.609375 -7.15625q-1.515625 -3.15625 -4.3125 -5.0q-2.796875 -1.84375 -6.796875 -1.84375q-4.5625 0 -7.8125 2.0q-3.234375 2.0 -4.921875 5.484375q-1.671875 3.484375 -1.671875 7.875q0 4.40625 2.0 7.84375q2.0 3.4375 5.515625 5.4375q3.53125 2.0 8.09375 2.0q2.46875 0 5.0625 -0.921875q2.609375 -0.921875 4.21875 -2.109375q1.1875 -0.890625 2.59375 -0.921875q1.40625 -0.046875 2.4375 0.828125q1.359375 1.203125 1.4375 2.65625q0.078125 1.4375 -1.28125 2.46875q-2.71875 2.15625 -6.765625 3.515625q-4.03125 1.359375 -7.703125 1.359375z" fill-rule="nonzero"/><path fill="#ffffff" d="m469.60394 314.1696q-5.1875 0 -9.234375 -2.21875q-4.046875 -2.234375 -6.328125 -6.140625q-2.28125 -3.921875 -2.28125 -9.0q0 -5.140625 2.15625 -9.046875q2.15625 -3.921875 5.984375 -6.140625q3.828125 -2.234375 8.765625 -2.234375q4.890625 0 8.390625 2.171875q3.515625 2.15625 5.359375 5.953125q1.859375 3.78125 1.859375 8.734375q0 1.1875 -0.8125 1.984375q-0.8125 0.78125 -2.078125 0.78125l-25.25 0l0 -5.015625l25.0625 0l-2.5625 1.75q-0.0625 -3.125 -1.25 -5.59375q-1.1875 -2.484375 -3.390625 -3.921875q-2.1875 -1.453125 -5.328125 -1.453125q-3.5625 0 -6.109375 1.578125q-2.53125 1.5625 -3.84375 4.296875q-1.3125 2.71875 -1.3125 6.15625q0 3.453125 1.5625 6.15625q1.5625 2.6875 4.3125 4.25q2.765625 1.5625 6.328125 1.5625q1.953125 0 3.984375 -0.71875q2.03125 -0.71875 3.296875 -1.65625q0.9375 -0.6875 2.03125 -0.71875q1.09375 -0.03125 1.90625 0.65625q1.0625 0.9375 1.125 2.0625q0.0625 1.125 -1.0 1.9375q-2.125 1.703125 -5.296875 2.765625q-3.15625 1.0625 -6.046875 1.0625zm51.76886 -0.1875q-1.390625 0 -2.296875 -0.90625q-0.90625 -0.90625 -0.90625 -2.28125l0 -15.421875q0 -3.578125 -1.3125 -5.828125q-1.3125 -2.25 -3.546875 -3.34375q-2.21875 -1.109375 -5.109375 -1.109375q-2.625 0 -4.765625 1.078125q-2.125 1.0625 -3.375 2.84375q-1.25 1.78125 -1.25 4.109375l-3.953125 0q0 -3.953125 1.90625 -7.046875q1.921875 -3.109375 5.234375 -4.921875q3.328125 -1.828125 7.46875 -1.828125q4.3125 0 7.71875 1.859375q3.421875 1.84375 5.390625 5.421875q1.984375 3.5625 1.984375 8.765625l0 15.421875q0 1.375 -0.90625 2.28125q-0.90625 0.90625 -2.28125 0.90625zm-25.765625 0q-1.375 0 -2.28125 -0.90625q-0.90625 -0.90625 -0.90625 -2.28125l0 -27.953125q0 -1.4375 0.90625 -2.3125q0.90625 -0.875 2.28125 -0.875q1.453125 0 2.328125 0.875q0.875 0.875 0.875 2.3125l0 27.953125q0 1.375 -0.875 2.28125q-0.875 0.90625 -2.328125 0.90625z" fill-rule="nonzero"/><path fill="#ffffff" d="m564.324 313.9196q-1.75 0 -2.953125 -1.203125q-1.203125 -1.203125 -1.203125 -2.953125l0 -54.156265q0 -1.84375 1.203125 -3.0q1.203125 -1.171875 2.953125 -1.171875l16.0 0q6.0 0 10.640625 2.640625q4.640625 2.6406403 7.234375 7.3281403q2.609375 4.671875 2.609375 10.75q0 5.84375 -2.609375 10.40625q-2.59375 4.5625 -7.234375 7.125q-4.640625 2.546875 -10.640625 2.546875l-11.84375 0l0 17.53125q0 1.75 -1.15625 2.953125q-1.15625 1.203125 -3.0 1.203125zm4.15625 -29.359375l11.84375 0q3.6875 0 6.484375 -1.59375q2.796875 -1.609375 4.390625 -4.40625q1.609375 -2.796875 1.609375 -6.40625q0 -3.828125 -1.609375 -6.75q-1.59375 -2.921875 -4.390625 -4.59375q-2.796875 -1.6875 -6.484375 -1.6875l-11.84375 0l0 25.4375zm51.121216 29.359375q-3.515625 0 -6.234375 -1.921875q-2.71875 -1.921875 -4.25 -5.234375q-1.515625 -3.328125 -1.515625 -7.640625l0 -43.687515q0 -1.75 1.125 -2.875q1.125 -1.125 2.875 -1.125q1.765625 0 2.875 1.125q1.125 1.125 1.125 2.875l0 43.687515q0 2.953125 1.125 4.875q1.125 1.921875 2.875 1.921875l2.0 0q1.609375 0 2.609375 1.125q1.0 1.109375 1.0 2.875q0 1.765625 -1.53125 2.890625q-1.515625 1.109375 -3.90625 1.109375l-0.171875 0zm29.443726 0.3125q-5.84375 0 -10.484375 -2.90625q-4.640625 -2.921875 -7.328125 -7.921875q-2.671875 -5.0 -2.671875 -11.328125q0 -6.3125 2.921875 -11.34375q2.921875 -5.046875 7.921875 -7.96875q5.0 -2.921875 11.25 -2.921875q6.234375 0 11.1875 2.921875q4.96875 2.921875 7.890625 7.96875q2.921875 5.03125 2.921875 11.34375l-3.125 0q0 6.328125 -2.6875 11.328125q-2.671875 5.0 -7.3125 7.921875q-4.640625 2.90625 -10.484375 2.90625zm1.609375 -7.1875q4.078125 0 7.265625 -1.953125q3.203125 -1.96875 5.046875 -5.359375q1.84375 -3.40625 1.84375 -7.65625q0 -4.3125 -1.84375 -7.703125q-1.84375 -3.40625 -5.046875 -5.359375q-3.1875 -1.96875 -7.265625 -1.96875q-4.0 0 -7.25 1.96875q-3.234375 1.953125 -5.125 5.359375q-1.875 3.390625 -1.875 7.703125q0 4.25 1.875 7.65625q1.890625 3.390625 5.125 5.359375q3.25 1.953125 7.25 1.953125zm17.90625 6.953125q-1.75 0 -2.921875 -1.15625q-1.15625 -1.15625 -1.15625 -2.921875l0 -12.234375l1.53125 -8.484375l6.640625 2.875l0 17.84375q0 1.765625 -1.171875 2.921875q-1.15625 1.15625 -2.921875 1.15625zm36.09369 0.234375q-6.40625 0 -11.40625 -2.90625q-5.0 -2.921875 -7.84375 -7.921875q-2.84375 -5.0 -2.84375 -11.328125q0 -6.46875 2.796875 -11.515625q2.8125 -5.046875 7.6875 -7.875q4.875 -2.84375 11.203125 -2.84375q4.71875 0 8.640625 1.796875q3.921875 1.796875 7.03125 5.40625q1.125 1.28125 0.796875 2.640625q-0.3125 1.359375 -1.75 2.390625q-1.125 0.796875 -2.484375 0.53125q-1.359375 -0.28125 -2.46875 -1.40625q-3.921875 -4.15625 -9.765625 -4.15625q-4.078125 0 -7.203125 1.875q-3.125 1.875 -4.890625 5.234375q-1.75 3.359375 -1.75 7.921875q0 4.328125 1.796875 7.6875q1.8125 3.359375 5.0 5.328125q3.203125 1.953125 7.453125 1.953125q2.796875 0 4.90625 -0.671875q2.125 -0.6875 3.890625 -2.140625q1.28125 -1.03125 2.640625 -1.140625q1.359375 -0.125 2.390625 0.75q1.359375 1.125 1.515625 2.53125q0.171875 1.390625 -0.953125 2.5q-5.75 5.359375 -14.390625 5.359375zm48.798706 0q-6.640625 0 -11.8125 -2.828125q-5.15625 -2.84375 -8.078125 -7.84375q-2.921875 -5.0 -2.921875 -11.484375q0 -6.5625 2.765625 -11.5625q2.765625 -5.0 7.640625 -7.828125q4.875 -2.84375 11.203125 -2.84375q6.234375 0 10.71875 2.765625q4.484375 2.75 6.84375 7.59375q2.359375 4.84375 2.359375 11.15625q0 1.515625 -1.046875 2.515625q-1.03125 1.0 -2.640625 1.0l-32.234375 0l0 -6.390625l32.0 0l-3.28125 2.234375q-0.078125 -4.0 -1.609375 -7.15625q-1.515625 -3.15625 -4.3125 -5.0q-2.796875 -1.84375 -6.796875 -1.84375q-4.5625 0 -7.8125 2.0q-3.234375 2.0 -4.921875 5.484375q-1.671875 3.484375 -1.671875 7.875q0 4.40625 2.0 7.84375q2.0 3.4375 5.515625 5.4375q3.53125 2.0 8.09375 2.0q2.46875 0 5.0625 -0.921875q2.609375 -0.921875 4.21875 -2.109375q1.1875 -0.890625 2.59375 -0.921875q1.40625 -0.046875 2.4375 0.828125q1.359375 1.203125 1.4375 2.65625q0.078125 1.4375 -1.28125 2.46875q-2.71875 2.15625 -6.765625 3.515625q-4.03125 1.359375 -7.703125 1.359375z" fill-rule="nonzero"/><path fill="#f6ae2d" d="m99.656166 352.44095l99.24796 -163.14961l30.547318 0l-99.247955 163.14961z" fill-rule="evenodd"/><path stroke="#f6ae2d" stroke-width="1.0" stroke-linejoin="round" stroke-linecap="butt" d="m99.656166 352.44095l99.24796 -163.14961l30.547318 0l-99.247955 163.14961z" fill-rule="evenodd"/><path fill="#f6ae2d" d="m193.90552 200.06299l6.952774 -10.771652l552.3622 0l6.952759 10.771652z" fill-rule="evenodd"/><path stroke="#f6ae2d" stroke-width="1.0" stroke-linejoin="round" stroke-linecap="butt" d="m193.90552 200.06299l6.952774 -10.771652l552.3622 0l6.952759 10.771652z" fill-rule="evenodd"/></g></svg>